:SAMPLES-PER-SECOND 30
:FRAME-RANGE 1-3358
:FULLY-SPECIFIED
:DEGREES
1784
root  24.182 42.0174 45.3989 -172.479 -54.229 -178.675
RightUpLeg  -8.79145 -5.22461 -4.12568
RightLeg  28.753 13.7637 7.83669
RightFoot  -7.48888 -0.925078 25.5692
RightToes  -1.11029e-010 1.2921e-014 -6.02303e-014
Spine  -0.825103 -0.858665 4.66649
Spine1  4.56575 -0.399974 -2.39141
HEad  -5.29886 8.705 -9.63501
LeftShoulder1  0.854296 -0.163587 -18.2844
LeftArm  1.68572 15.7493 -26.737
LeftForeArm  33.0763 -1.43397 -12.6292
LeftHand  -0.0420236 4.96511 5.64462
RightShoulder  1.16226 3.97707 8.54968
RightArm  -43.4768 12.4647 5.46474
RightForeArm  60.832 -2.93035 -4.99004
RightHand  0.0727819 -6.25953 -12.4322
LeftUpLeg  -20.3041 4.20329 8.57154
LeftLeg  36.1105 -5.75664 -4.13443
LeftFoot  4.15683 2.66244 -19.5859
LeftToes  -1.90334e-010 -8.83595e-011 4.99953e-011
1785
root  23.2732 41.6891 46.1166 -169.465 -49.9072 178.606
RightUpLeg  -8.71912 -4.14325 -4.31079
RightLeg  26.1878 15.3753 7.87781
RightFoot  -6.09555 -1.3074 27.1367
RightToes  -1.11029e-010 1.2921e-014 -6.02303e-014
Spine  0.452495 -0.336165 3.40512
Spine1  3.4939 0.416523 -3.94294
HEad  -7.8161 9.69669 -9.74171
LeftShoulder1  0.754133 0.294458 -18.7353
LeftArm  1.64172 16.0082 -25.1127
LeftForeArm  33.8491 0.217315 -12.7467
LeftHand  -0.0318607 5.18765 5.12121
RightShoulder  1.15913 4.10408 8.1983
RightArm  -45.3466 14.1101 5.75017
RightForeArm  61.0059 -1.77819 -5.49826
RightHand  0.0844053 -6.4609 -11.5398
LeftUpLeg  -22.2036 5.17128 8.52561
LeftLeg  32.4827 -1.63888 -0.768223
LeftFoot  -0.418758 1.69209 -17.556
LeftToes  -1.90334e-010 -8.83595e-011 4.99953e-011
1786
root  22.2878 41.148 46.8599 -167.825 -47.0213 177.658
RightUpLeg  -8.90648 -2.85926 -3.54057
RightLeg  25.1739 11.1664 5.45856
RightFoot  -1.54645 -1.39135 16.0172
RightToes  -1.11029e-010 1.2921e-014 -6.02303e-014
Spine  1.1295 -0.214704 3.8929
Spine1  3.24371 0.64188 -4.19653
HEad  -10.5037 9.5948 -9.99065
LeftShoulder1  0.805009 0.0890654 -18.7173
LeftArm  1.74086 16.1978 -24.2206
LeftForeArm  34.1108 1.86528 -12.8747
LeftHand  -0.0256958 5.35318 4.63946
RightShoulder  1.12673 4.19951 7.49079
RightArm  -46.641 15.4659 6.40955
RightForeArm  61.2907 -1.42069 -5.98743
RightHand  0.0761227 -6.49333 -10.4763
LeftUpLeg  -23.7451 6.78582 9.87462
LeftLeg  26.2025 1.92952 1.37043
LeftFoot  -3.59253 1.08121 -15.5685
LeftToes  -1.90334e-010 -8.83595e-011 4.99953e-011
1787
root  21.4867 39.9516 47.6098 -164.941 -45.0387 174.849
RightUpLeg  -7.83577 -2.37271 -4.70982
RightLeg  24.2831 2.30498 0.915849
RightFoot  -12.1063 -0.0279183 8.13654
RightToes  -1.11029e-010 1.2921e-014 -6.02303e-014
Spine  1.69538 -0.54117 1.91465
Spine1  3.84952 0.41906 -4.88377
HEad  -13.2796 8.67514 -10.3556
LeftShoulder1  0.967193 -0.633526 -18.2091
LeftArm  2.27659 16.2433 -23.7282
LeftForeArm  33.5445 3.18543 -13.1461
LeftHand  -0.0335854 5.10618 4.07158
RightShoulder  1.06632 4.24775 6.48095
RightArm  -47.1701 16.5963 7.3904
RightForeArm  60.5917 -1.88498 -6.34662
RightHand  0.0914365 -6.79239 -9.6802
LeftUpLeg  -26.7436 7.0629 10.4431
LeftLeg  21.7531 5.37056 2.68662
LeftFoot  -6.60927 0.693627 -15.7494
LeftToes  -1.90334e-010 -8.83595e-011 4.99953e-011
